<svg xmlns="http://www.w3.org/2000/svg" xmlns:svg="http://www.w3.org/2000/svg" xmlns:xlink="http://www.w3.org/1999/xlink" id="svg2" width="128" height="128" version="1.1"><defs id="defs4"><linearGradient id="linearGradient3813"><stop id="stop3815" offset="0" style="stop-color:#063289;stop-opacity:1"/><stop id="stop3817" offset="1" style="stop-color:#6e98da;stop-opacity:1"/></linearGradient><filter id="filter3783"><feGaussianBlur id="feGaussianBlur3785" stdDeviation="3.692"/></filter><linearGradient id="linearGradient3034" x1="47.191" x2="-22.256" y1="961.295" y2="885.767" gradientTransform="matrix(1.130491,0,0,1.1304907,35.811139,-66.098743)" gradientUnits="userSpaceOnUse" xlink:href="#linearGradient3813"/></defs><metadata id="metadata7"/><g id="layer1" transform="translate(0,-924.36218)"><rect style="color:#000;fill:url(#linearGradient3034);fill-opacity:1;stroke:none;stroke-width:7.77486038;marker:none;visibility:visible;display:inline;overflow:visible;enable-background:accumulate" id="rect3755-7" width="128" height="128" x="0" y="924.362" rx="7.291" ry="0"/><g id="g3518" transform="matrix(0.8974166,0,0,0.8974166,18.8958,111.30776)"><g style="fill:none;stroke:#000;stroke-width:1.5;stroke-linecap:round;stroke-linejoin:round;stroke-miterlimit:4;stroke-opacity:1;stroke-dasharray:none" id="g3382" transform="matrix(1.8928317,0,0,1.8928317,31.171726,951.55957)"><path style="fill:#fff;stroke:#000" id="path3384" d="m 22,10 c 10.5,1 16.5,8 16,29 l -23,0 c 0,-9 10,-6.5 8,-21"/><path style="fill:#fff;stroke:#000" id="path3386" d="m 24,18 c 0.38,2.91 -5.55,7.37 -8,9 -3,2 -2.82,4.34 -5,4 -1.042,-0.94 1.41,-3.04 0,-3 -1,0 0.19,1.23 -1,2 -1,0 -4.003,1 -4,-4 0,-2 6,-12 6,-12 0,0 1.89,-1.9 2,-3.5 -0.73,-0.994 -0.5,-2 -0.5,-3 1,-1 3,2.5 3,2.5 l 2,0 c 0,0 0.78,-1.992 2.5,-3 1,0 1,3 1,3"/><path style="fill:#000;stroke:#000" id="path3388" d="m 9.5,25.5 a 0.5,0.5 0 1 1 -1,0 0.5,0.5 0 1 1 1,0 z"/><path style="fill:#000;stroke:#000" id="path3390" d="m 15,15.5 a 0.5,1.5 0 1 1 -1,0 0.5,1.5 0 1 1 1,0 z" transform="matrix(0.866,0.5,-0.5,0.866,9.693,-5.173)"/></g></g><g id="g3102" transform="matrix(1.4015308,0,0,1.4015308,12.327404,933.73504)" style="fill:#fff;fill-opacity:1;fill-rule:evenodd;stroke:#000;stroke-width:1.5;stroke-linecap:round;stroke-linejoin:round;stroke-miterlimit:4;stroke-opacity:1;stroke-dasharray:none"><path id="path3104" d="m 9,39 27,0 0,-3 -27,0 0,3 z" style="stroke-linecap:butt"/><path id="path3106" d="m 12,36 0,-4 21,0 0,4 -21,0 z" style="stroke-linecap:butt"/><path id="path3108" d="m 11,14 0,-5 4,0 0,2 5,0 0,-2 5,0 0,2 5,0 0,-2 4,0 0,5" style="stroke-linecap:butt"/><path id="path3110" d="m 34,14 -3,3 -17,0 -3,-3"/><path id="path3112" d="m 31,17 0,12.5 -17,0 0,-12.5" style="stroke-linecap:butt;stroke-linejoin:miter"/><path id="path3114" d="m 31,29.5 1.5,2.5 -20,0 1.5,-2.5"/><path id="path3116" d="m 11,14 23,0" style="fill:none;stroke:#000;stroke-linejoin:miter"/></g></g></svg>