<svg xmlns="http://www.w3.org/2000/svg" xmlns:svg="http://www.w3.org/2000/svg" xmlns:xlink="http://www.w3.org/1999/xlink" id="svg2" width="1024" height="500" version="1.1"><defs id="defs4"><linearGradient id="linearGradient3813"><stop id="stop3815" offset="0" style="stop-color:#063289;stop-opacity:1"/><stop id="stop3817" offset="1" style="stop-color:#6e98da;stop-opacity:1"/></linearGradient><filter id="filter3783" color-interpolation-filters="sRGB"><feGaussianBlur id="feGaussianBlur3785" stdDeviation="3.692"/></filter><linearGradient id="linearGradient3051" x1="47.191" x2="-22.256" y1="961.295" y2="885.767" gradientTransform="translate(37.893569,52.060711)" gradientUnits="userSpaceOnUse" xlink:href="#linearGradient3813"/></defs><metadata id="metadata7"/><g id="layer1" transform="translate(0,-552.36218)"><rect style="fill:gray;fill-rule:evenodd;stroke:none" id="rect3057" width="1024" height="500" x="0" y="552.362" ry="0"/><g id="g3032" transform="matrix(2.4350535,0,0,2.4350535,620.57311,-1599.3032)"><rect id="rect3755-1" width="113.225" height="113.225" x="5.653" y="929.676" rx="6.45" ry="6.799" style="color:#000;fill:#000;fill-opacity:1;stroke:none;stroke-width:7.77486038;marker:none;visibility:visible;display:inline;overflow:visible;filter:url(#filter3783);enable-background:accumulate"/><rect id="rect3755-7" width="113.225" height="113.225" x="6.216" y="928.194" rx="6.45" ry="6.799" style="color:#000;fill:url(#linearGradient3051);fill-opacity:1;stroke:none;stroke-width:7.77486038;marker:none;visibility:visible;display:inline;overflow:visible;enable-background:accumulate"/><rect id="rect3755" width="113.225" height="113.225" x="4.387" y="929.035" rx="6.45" ry="6.799" style="color:#000;fill:none;stroke:#fff;stroke-width:7.77486038;stroke-miterlimit:4;stroke-opacity:1;stroke-dasharray:none;marker:none;visibility:visible;display:inline;overflow:visible;enable-background:accumulate"/><g id="g3518" transform="matrix(0.8974166,0,0,0.8974166,12.8958,109.30776)"><g id="g3382" transform="matrix(1.8928317,0,0,1.8928317,31.171726,951.55957)" style="fill:none;stroke:#000;stroke-width:1.5;stroke-linecap:round;stroke-linejoin:round;stroke-miterlimit:4;stroke-opacity:1;stroke-dasharray:none"><path id="path3384" d="m 22,10 c 10.5,1 16.5,8 16,29 l -23,0 c 0,-9 10,-6.5 8,-21" style="fill:#fff;stroke:#000"/><path id="path3386" d="m 24,18 c 0.38,2.91 -5.55,7.37 -8,9 -3,2 -2.82,4.34 -5,4 -1.042,-0.94 1.41,-3.04 0,-3 -1,0 0.19,1.23 -1,2 -1,0 -4.003,1 -4,-4 0,-2 6,-12 6,-12 0,0 1.89,-1.9 2,-3.5 -0.73,-0.994 -0.5,-2 -0.5,-3 1,-1 3,2.5 3,2.5 l 2,0 c 0,0 0.78,-1.992 2.5,-3 1,0 1,3 1,3" style="fill:#fff;stroke:#000"/><path id="path3388" d="m 9.5,25.5 a 0.5,0.5 0 1 1 -1,0 0.5,0.5 0 1 1 1,0 z" style="fill:#000;stroke:#000"/><path id="path3390" d="m 15,15.5 a 0.5,1.5 0 1 1 -1,0 0.5,1.5 0 1 1 1,0 z" transform="matrix(0.866,0.5,-0.5,0.866,9.693,-5.173)" style="fill:#000;stroke:#000"/></g></g><g style="fill:#fff;fill-opacity:1;fill-rule:evenodd;stroke:#000;stroke-width:1.5;stroke-linecap:round;stroke-linejoin:round;stroke-miterlimit:4;stroke-opacity:1;stroke-dasharray:none" id="g3102" transform="matrix(1.4015308,0,0,1.4015308,6.3274043,931.73504)"><path style="stroke-linecap:butt" id="path3104" d="m 9,39 27,0 0,-3 -27,0 0,3 z"/><path style="stroke-linecap:butt" id="path3106" d="m 12,36 0,-4 21,0 0,4 -21,0 z"/><path style="stroke-linecap:butt" id="path3108" d="m 11,14 0,-5 4,0 0,2 5,0 0,-2 5,0 0,2 5,0 0,-2 4,0 0,5"/><path id="path3110" d="m 34,14 -3,3 -17,0 -3,-3"/><path style="stroke-linecap:butt;stroke-linejoin:miter" id="path3112" d="m 31,17 0,12.5 -17,0 0,-12.5"/><path id="path3114" d="m 31,29.5 1.5,2.5 -20,0 1.5,-2.5"/><path style="fill:none;stroke:#000;stroke-linejoin:miter" id="path3116" d="m 11,14 23,0"/></g></g><text style="font-size:117.61553191999999513px;font-style:normal;font-weight:400;line-height:125%;letter-spacing:0;word-spacing:0;fill:#fff;fill-opacity:1;stroke:none;font-family:Sans" id="text3053" x="112.728" y="846.21" xml:space="preserve"><tspan id="tspan3055" x="112.728" y="846.21">Chess</tspan></text></g></svg>